<svg viewBox="0 0 400 400" xmlns="http://www.w3.org/2000/svg">
<rect width="400" height="400" fill="#f2e6d3"/>
<g>
<rect x="20" y="30" width="360" height="60" fill="#c9a878"/>
<rect x="30" y="35" width="20" height="50" fill="#c06b74"/>
<rect x="52" y="35" width="16" height="50" fill="#D98B93"/>
<rect x="70" y="35" width="18" height="50" fill="#e0a5ab"/>
<rect x="90" y="35" width="14" height="50" fill="#F2C879"/>
<rect x="106" y="35" width="20" height="50" fill="#e6bd6e"/>
<rect x="128" y="35" width="16" height="50" fill="#8FA68E"/>
<rect x="146" y="35" width="18" height="50" fill="#6f8a70"/>
<rect x="166" y="35" width="14" height="50" fill="#a9c0a8"/>
</g>
<g>
<rect x="20" y="100" width="360" height="60" fill="#c9a878"/>
<rect x="30" y="105" width="16" height="50" fill="#8FA68E"/>
<rect x="48" y="105" width="20" height="50" fill="#c06b74"/>
<rect x="70" y="105" width="14" height="50" fill="#F2C879"/>
<rect x="86" y="105" width="18" height="50" fill="#D98B93"/>
<rect x="106" y="105" width="16" height="50" fill="#6f8a70"/>
<rect x="124" y="105" width="20" height="50" fill="#e6bd6e"/>
<rect x="146" y="105" width="14" height="50" fill="#e0a5ab"/>
</g>
<g>
<rect x="20" y="170" width="360" height="60" fill="#c9a878"/>
<rect x="30" y="175" width="18" height="50" fill="#F2C879"/>
<rect x="50" y="175" width="16" height="50" fill="#c06b74"/>
<rect x="68" y="175" width="20" height="50" fill="#8FA68E"/>
<rect x="90" y="175" width="14" height="50" fill="#e0a5ab"/>
<rect x="106" y="175" width="18" height="50" fill="#6f8a70"/>
<rect x="126" y="175" width="16" height="50" fill="#e6bd6e"/>
</g>
</svg>